<svg width="25" height="18" viewBox="0 0 25 18" fill="none" xmlns="http://www.w3.org/2000/svg">
<path d="M0.6875 1.5C0.6875 0.671573 1.35907 0 2.1875 0H23.1875C24.0159 0 24.6875 0.671573 24.6875 1.5C24.6875 2.32843 24.0159 3 23.1875 3H2.1875C1.35907 3 0.6875 2.32843 0.6875 1.5ZM0.6875 9C0.6875 8.17157 1.35907 7.5 2.1875 7.5H23.1875C24.0159 7.5 24.6875 8.17157 24.6875 9C24.6875 9.82843 24.0159 10.5 23.1875 10.5H2.1875C1.35907 10.5 0.6875 9.82843 0.6875 9ZM0.6875 16.5C0.6875 15.6716 1.35907 15 2.1875 15H23.1875C24.0159 15 24.6875 15.6716 24.6875 16.5C24.6875 17.3284 24.0159 18 23.1875 18H2.1875C1.35907 18 0.6875 17.3284 0.6875 16.5Z" fill="#04A64B"/>
</svg>
