<svg width="297" height="76" viewBox="0 0 297 76" fill="none" xmlns="http://www.w3.org/2000/svg">
<path d="M71.5143 44.0771C68.3888 44.0771 65.8242 41.513 65.8242 38.3879C65.8242 35.2629 68.3888 32.6987 71.5143 32.6987C74.6398 32.6987 77.2044 35.2629 77.2044 38.3879C77.2044 41.513 74.6398 44.0771 71.5143 44.0771Z" fill="#04A64B"/>
<path d="M6.1979 44.0771C3.07236 44.0771 0.507812 41.513 0.507812 38.3879C0.507812 35.2629 3.07236 32.6987 6.1979 32.6987C9.32344 32.6987 11.888 35.2629 11.888 38.3879C11.888 41.513 9.32344 44.0771 6.1979 44.0771Z" fill="#04A64B"/>
<path d="M38.816 46.5611C43.2864 46.5611 46.9104 42.9377 46.9104 38.4681C46.9104 33.9984 43.2864 30.375 38.816 30.375C34.3456 30.375 30.7217 33.9984 30.7217 38.4681C30.7217 42.9377 34.3456 46.5611 38.816 46.5611Z" fill="#E73137"/>
<path d="M38.8153 61.5446C41.4267 61.5446 43.5437 59.428 43.5437 56.817C43.5437 54.206 41.4267 52.0894 38.8153 52.0894C36.2039 52.0894 34.0869 54.206 34.0869 56.817C34.0869 59.428 36.2039 61.5446 38.8153 61.5446Z" fill="#04A64B"/>
<path d="M38.8153 24.8459C41.4267 24.8459 43.5437 22.7292 43.5437 20.1182C43.5437 17.5072 41.4267 15.3906 38.8153 15.3906C36.2039 15.3906 34.0869 17.5072 34.0869 20.1182C34.0869 22.7292 36.2039 24.8459 38.8153 24.8459Z" fill="#04A64B"/>
<path d="M38.8161 11.4643C35.6905 11.4643 33.126 8.90016 33.126 5.77512C33.126 2.65008 35.6905 0.0859375 38.8161 0.0859375C41.9416 0.0859375 44.5062 2.65008 44.5062 5.77512C44.5062 8.90016 42.0218 11.4643 38.8161 11.4643Z" fill="#04A64B"/>
<path d="M28.3968 16.2722C29.9997 16.2722 31.282 14.9902 31.282 13.3876C31.282 11.785 29.9997 10.5029 28.3968 10.5029C26.794 10.5029 25.5117 11.785 25.5117 13.3876C25.5919 14.9902 26.8741 16.2722 28.3968 16.2722Z" fill="#04A64B"/>
<path d="M49.1537 16.2722C50.7565 16.2722 52.0388 14.9902 52.0388 13.3876C52.0388 11.785 50.7565 10.5029 49.1537 10.5029C47.5508 10.5029 46.2686 11.785 46.2686 13.3876C46.3487 14.9902 47.631 16.2722 49.1537 16.2722Z" fill="#04A64B"/>
<path d="M63.9007 30.9363C65.4942 30.9363 66.7859 29.6448 66.7859 28.0516C66.7859 26.4585 65.4942 25.167 63.9007 25.167C62.3073 25.167 61.0156 26.4585 61.0156 28.0516C61.0156 29.6448 62.3073 30.9363 63.9007 30.9363Z" fill="#04A64B"/>
<path d="M63.9007 51.6892C65.4942 51.6892 66.7859 50.3977 66.7859 48.8046C66.7859 47.2114 65.4942 45.9199 63.9007 45.9199C62.3073 45.9199 61.0156 47.2114 61.0156 48.8046C61.0156 50.3977 62.3073 51.6892 63.9007 51.6892Z" fill="#04A64B"/>
<path d="M13.8109 30.8553C15.4137 30.8553 16.696 29.5732 16.696 27.9706C16.696 26.368 15.4137 25.0859 13.8109 25.0859C12.2081 25.0859 10.9258 26.368 10.9258 27.9706C10.9258 29.5732 12.2081 30.8553 13.8109 30.8553Z" fill="#04A64B"/>
<path d="M13.8109 45.9199C12.2081 45.9199 10.9258 47.202 10.9258 48.8046C10.9258 50.4072 12.2081 51.6892 13.8109 51.6892C15.4137 51.6892 16.696 50.4072 16.696 48.8046C16.6159 47.202 15.3336 45.9199 13.8109 45.9199Z" fill="#04A64B"/>
<path d="M38.8153 75.8083C41.4267 75.8083 43.5437 73.6917 43.5437 71.0807C43.5437 68.4697 41.4267 66.353 38.8153 66.353C36.2039 66.353 34.0869 68.4697 34.0869 71.0807C34.0869 73.6917 36.2039 75.8083 38.8153 75.8083Z" fill="#04A64B"/>
<path d="M15.7345 19.0767C16.7763 19.0767 17.738 18.676 18.3791 17.9548C19.8217 16.5125 19.8217 14.0285 18.3791 12.5862C17.6579 11.865 16.6962 11.4644 15.7345 11.4644C14.7728 11.4644 13.7309 11.865 13.0898 12.5862C12.3685 13.3073 11.9678 14.2689 11.9678 15.2305C11.9678 16.192 12.3685 17.2337 13.0898 17.8747C13.811 18.676 14.7728 19.0767 15.7345 19.0767Z" fill="#04A64B"/>
<path d="M61.9766 19.0767C63.0185 19.0767 63.9802 18.676 64.6213 17.9548C66.0639 16.5125 66.0639 14.0285 64.6213 12.5862C63.9001 11.865 62.9383 11.4644 61.9766 11.4644C61.0149 11.4644 59.9731 11.865 59.3319 12.5862C58.6107 13.3073 58.21 14.2689 58.21 15.2305C58.21 16.2721 58.6107 17.2337 59.3319 17.8747C59.9731 18.676 60.9348 19.0767 61.9766 19.0767Z" fill="#04A64B"/>
<path d="M20.5438 43.1955C23.1552 43.1955 25.2722 41.0789 25.2722 38.4679C25.2722 35.8569 23.1552 33.7402 20.5438 33.7402C17.9324 33.7402 15.8154 35.8569 15.8154 38.4679C15.8154 41.0789 17.9324 43.1955 20.5438 43.1955Z" fill="#04A64B"/>
<path d="M57.1678 43.1955C59.7793 43.1955 61.8962 41.0789 61.8962 38.4679C61.8962 35.8569 59.7793 33.7402 57.1678 33.7402C54.5564 33.7402 52.4395 35.8569 52.4395 38.4679C52.4395 41.0789 54.5564 43.1955 57.1678 43.1955Z" fill="#04A64B"/>
<path d="M25.9135 44.7983C24.1504 44.7983 22.4674 45.5195 21.1851 46.7214C18.6206 49.2856 18.6206 53.5324 21.1851 56.0966C22.4674 57.3787 24.0703 58.0197 25.9135 58.0197C27.6766 58.0197 29.3596 57.2985 30.6419 56.0966C33.2064 53.5324 33.2064 49.2856 30.6419 46.7214C29.3596 45.4394 27.6766 44.7983 25.9135 44.7983Z" fill="#04A64B"/>
<path d="M51.7993 32.1374C53.5624 32.1374 55.2454 31.4162 56.5276 30.2143C57.8099 28.9322 58.451 27.3296 58.451 25.4866C58.451 23.7238 57.7298 22.0411 56.5276 20.759C55.2454 19.477 53.6425 18.8359 51.7993 18.8359C50.0361 18.8359 48.3531 19.5571 47.0709 20.759C44.5063 23.3232 44.5063 27.57 47.0709 30.1341C48.3531 31.4162 50.0361 32.1374 51.7993 32.1374Z" fill="#04A64B"/>
<path d="M25.9135 18.8359C24.1504 18.8359 22.4674 19.5571 21.1851 20.759C18.6206 23.3232 18.6206 27.57 21.1851 30.1341C22.4674 31.4162 24.0703 32.0572 25.9135 32.0572C27.6766 32.0572 29.3596 31.3361 30.6419 30.1341C33.2064 27.57 33.2064 23.3232 30.6419 20.759C29.3596 19.5571 27.6766 18.8359 25.9135 18.8359Z" fill="#04A64B"/>
<path d="M51.7993 44.7983C50.0361 44.7983 48.3531 45.5195 47.0709 46.7214C44.5063 49.2856 44.5063 53.5324 47.0709 56.0966C48.3531 57.3787 49.956 58.0197 51.7993 58.0197C53.5624 58.0197 55.2454 57.2985 56.5276 56.0966C59.0922 53.5324 59.0922 49.2856 56.5276 46.7214C55.2454 45.4394 53.5624 44.7983 51.7993 44.7983Z" fill="#04A64B"/>
<path d="M154.22 19.9575C148.931 19.9575 145.324 24.2845 145.324 29.573V46.2399C145.324 49.1246 143.08 51.5284 140.195 51.6887V54.0926H168.005V19.9575H154.22ZM161.754 50.3265H150.854V28.8519C150.854 25.807 153.339 23.4031 156.304 23.4031H161.754V50.3265Z" fill="#E73137"/>
<path d="M97.5591 19.9575C92.2697 19.9575 88.6633 24.2845 88.6633 29.573V46.2399C88.6633 49.1246 86.4193 51.5284 83.5342 51.6887V54.0926H94.1931V28.8519C94.1931 25.807 96.6775 23.4031 99.6428 23.4031H105.092V54.0926H111.344V19.9575H97.5591Z" fill="#E73137"/>
<path d="M208.797 23.8046L210.881 20.0386H211.602V25.6476H210.881V21.3206L208.958 24.686H208.557L206.633 21.3206V25.6476H205.912V20.0386H206.633L208.797 23.8046Z" fill="#04A64B"/>
<path d="M215.85 25.7273C215.449 25.7273 215.048 25.6472 214.728 25.487C214.407 25.3267 214.087 25.0863 213.846 24.8459C213.606 24.6055 213.366 24.285 213.285 23.8844C213.125 23.5639 213.045 23.1632 213.045 22.7626C213.045 22.3619 213.125 21.9613 213.285 21.6408C213.446 21.3203 213.606 20.9997 213.846 20.7594C214.087 20.519 214.407 20.2786 214.728 20.1183C215.048 19.958 215.449 19.8779 215.85 19.8779C216.251 19.8779 216.651 19.958 216.972 20.1183C217.292 20.2786 217.613 20.519 217.853 20.7594C218.094 20.9997 218.254 21.3203 218.414 21.6408C218.575 21.9613 218.655 22.3619 218.655 22.7626C218.655 22.8427 218.655 22.8427 218.655 22.9228C218.655 23.003 218.655 23.003 218.655 23.003H213.846C213.846 23.3235 213.927 23.5639 214.087 23.8042C214.167 24.0446 214.327 24.285 214.568 24.4453C214.728 24.6055 214.968 24.7658 215.209 24.8459C215.449 24.9261 215.69 25.0062 216.01 25.0062C216.17 25.0062 216.411 25.0062 216.571 24.926C216.731 24.8459 216.892 24.8459 217.052 24.6857C217.212 24.6055 217.373 24.5254 217.453 24.3652C217.533 24.2049 217.693 24.1248 217.773 23.9645L218.414 24.1248C218.334 24.3651 218.174 24.5254 218.014 24.6857C217.853 24.8459 217.693 25.0062 217.453 25.1664C217.212 25.3267 217.052 25.4068 216.731 25.487C216.331 25.7273 216.09 25.7273 215.85 25.7273ZM217.934 22.5222C217.934 22.2017 217.853 21.9613 217.693 21.7209C217.613 21.4805 217.453 21.2401 217.212 21.0799C216.972 20.9196 216.812 20.7593 216.571 20.6792C216.331 20.5991 216.09 20.519 215.77 20.519C215.449 20.519 215.209 20.5991 214.968 20.6792C214.728 20.7593 214.487 20.9196 214.327 21.0799C214.167 21.2401 214.007 21.4805 213.846 21.7209C213.766 21.9613 213.686 22.2818 213.606 22.5222H217.934Z" fill="#04A64B"/>
<path d="M219.215 25.0066H219.535C219.696 25.0066 219.856 24.9264 219.936 24.7662C220.016 24.6059 220.177 24.4457 220.257 24.2053C220.337 23.9649 220.417 23.5642 220.497 23.1636C220.577 22.763 220.657 22.2021 220.738 21.561L220.898 20.0386H224.184V25.0066H224.905V27.4104H224.264V25.6476H219.856V27.4104H219.215V25.0066ZM223.543 25.0066V20.5995H221.619L221.459 21.8815C221.299 22.763 221.218 23.4841 221.058 23.9649C220.898 24.4457 220.738 24.8463 220.577 25.0066H223.543Z" fill="#04A64B"/>
<path d="M226.989 24.605L230.355 20.0377H230.916V25.6467H230.195V21.0793L226.909 25.5666H226.268V19.9575H226.989V24.605Z" fill="#04A64B"/>
<path d="M236.285 25.6467H235.564V23.3229C235.404 23.4031 235.163 23.4832 235.003 23.4832C234.843 23.4832 234.522 23.5633 234.202 23.5633C233.881 23.5633 233.561 23.4832 233.32 23.4031C233.08 23.3229 232.919 23.1627 232.759 23.0024C232.599 22.8422 232.519 22.6018 232.439 22.3614C232.358 22.121 232.358 21.8806 232.358 21.5601V20.0377H233.08V21.3998C233.08 21.9607 233.16 22.2812 233.4 22.5216C233.641 22.762 233.881 22.8422 234.282 22.8422C234.602 22.8422 234.843 22.8422 235.083 22.762C235.324 22.6819 235.484 22.6018 235.564 22.5216V19.9575H236.285V25.6467Z" fill="#04A64B"/>
<path d="M238.77 22.4424H241.896V20.0386H242.617V25.6476H241.896V23.0835H238.77V25.6476H238.049V20.0386H238.77V22.4424Z" fill="#04A64B"/>
<path d="M245.181 24.605L248.547 20.0377H249.108V25.6467H248.387V21.0793L245.101 25.5666H244.46V19.9575H245.181V24.605Z" fill="#04A64B"/>
<path d="M251.592 24.6054L254.958 20.038H255.519V25.647H254.798V21.0797L251.512 25.5669H250.871V19.9579H251.592V24.6054ZM254.878 17.8745C254.878 18.195 254.718 18.4354 254.477 18.6758C254.237 18.8361 253.836 18.9162 253.355 18.9162C252.875 18.9162 252.554 18.8361 252.234 18.6758C251.993 18.5155 251.833 18.2752 251.833 17.8745H252.314C252.314 18.1149 252.394 18.2752 252.634 18.3553C252.795 18.4354 253.035 18.5155 253.436 18.5155C253.836 18.5155 253.997 18.4354 254.237 18.3553C254.397 18.2752 254.477 18.1149 254.558 17.8745H254.878Z" fill="#04A64B"/>
<path d="M260.248 19.9575H260.969V24.9255H263.694V19.9575H264.415V24.9255H265.377V27.3294H264.736V25.5666H260.248V19.9575Z" fill="#04A64B"/>
<path d="M268.984 25.7273C268.583 25.7273 268.182 25.6472 267.862 25.487C267.541 25.3267 267.221 25.0863 266.98 24.8459C266.74 24.6055 266.499 24.285 266.419 23.8844C266.259 23.5639 266.179 23.1632 266.179 22.7626C266.179 22.3619 266.259 21.9613 266.419 21.6408C266.579 21.3203 266.74 20.9997 266.98 20.7594C267.221 20.519 267.541 20.2786 267.862 20.1183C268.182 19.958 268.583 19.8779 268.984 19.8779C269.384 19.8779 269.785 19.958 270.106 20.1183C270.426 20.2786 270.747 20.519 270.987 20.7594C271.228 20.9997 271.388 21.3203 271.548 21.6408C271.709 21.9613 271.789 22.3619 271.789 22.7626C271.789 22.8427 271.789 22.8427 271.789 22.9228C271.789 23.003 271.789 23.003 271.789 23.003H266.98C266.98 23.3235 267.06 23.5639 267.221 23.8042C267.301 24.0446 267.461 24.285 267.701 24.4453C267.862 24.6055 268.102 24.7658 268.343 24.8459C268.583 24.9261 268.823 25.0062 269.144 25.0062C269.304 25.0062 269.545 25.0062 269.705 24.926C269.865 24.8459 270.026 24.8459 270.186 24.6857C270.346 24.6055 270.506 24.5254 270.587 24.3652C270.667 24.2049 270.827 24.1248 270.907 23.9645L271.548 24.1248C271.468 24.3651 271.308 24.5254 271.148 24.6857C270.987 24.8459 270.827 25.0062 270.587 25.1664C270.346 25.3267 270.186 25.4068 269.865 25.487C269.465 25.7273 269.224 25.7273 268.984 25.7273ZM271.067 22.5222C271.067 22.2017 270.987 21.9613 270.827 21.7209C270.747 21.4805 270.587 21.2401 270.346 21.0799C270.106 20.9196 269.945 20.7593 269.705 20.6792C269.465 20.5991 269.224 20.519 268.904 20.519C268.583 20.519 268.343 20.5991 268.102 20.6792C267.862 20.7593 267.621 20.9196 267.461 21.0799C267.301 21.2401 267.14 21.4805 266.98 21.7209C266.9 21.9613 266.82 22.2818 266.74 22.5222H271.067Z" fill="#04A64B"/>
<path d="M273.712 22.4424H276.837V20.0386H277.558V25.6476H276.917V23.0835H273.712V25.6476H272.99V20.0386H273.712V22.4424Z" fill="#04A64B"/>
<path d="M281.486 25.6476H280.764V20.6796H278.761V20.0386H283.409V20.6796H281.405V25.6476H281.486Z" fill="#04A64B"/>
<path d="M287.577 25.7274C287.096 25.7274 286.695 25.5671 286.294 25.3267C285.894 25.0863 285.653 24.7658 285.413 24.4453V27.8909H284.691V19.9581H285.333V21.0799C285.573 20.7594 285.894 20.4388 286.214 20.1984C286.615 19.9581 287.016 19.8779 287.416 19.8779C287.817 19.8779 288.138 19.958 288.458 20.1183C288.779 20.2786 289.099 20.519 289.34 20.7594C289.58 20.9997 289.74 21.3202 289.901 21.7209C290.061 22.0414 290.141 22.4421 290.141 22.8427C290.141 23.2434 290.061 23.644 289.981 23.9645C289.821 24.285 289.66 24.6055 289.42 24.9261C289.179 25.2466 288.939 25.4069 288.618 25.5671C288.298 25.6472 287.897 25.7274 287.577 25.7274ZM287.336 25.0863C287.657 25.0863 287.897 25.0062 288.138 24.9261C288.378 24.7658 288.618 24.6056 288.779 24.4453C288.939 24.2049 289.099 23.9645 289.179 23.7241C289.26 23.4837 289.34 23.1632 289.34 22.9228C289.34 22.6023 289.26 22.3619 289.179 22.0414C289.099 21.7209 288.939 21.5606 288.699 21.3202C288.538 21.0799 288.298 20.9196 288.057 20.8395C287.817 20.6792 287.496 20.6792 287.256 20.6792C287.096 20.6792 286.855 20.6792 286.695 20.7594C286.455 20.8395 286.294 20.9196 286.134 21.0799C285.974 21.2401 285.813 21.3203 285.653 21.5606C285.493 21.801 285.413 21.8812 285.413 22.1215V23.8844C285.493 24.1248 285.573 24.285 285.733 24.4453C285.894 24.6056 286.054 24.7658 286.214 24.9261C286.374 25.0863 286.535 25.1665 286.775 25.2466C286.935 25.0062 287.096 25.0863 287.336 25.0863Z" fill="#04A64B"/>
<path d="M208.797 38.7884C208.316 38.7884 207.916 38.6282 207.515 38.3878C207.114 38.1474 206.874 37.8269 206.633 37.5063V40.9519H205.912V33.0191H206.553V34.1409C206.794 33.8204 207.114 33.4999 207.435 33.2595C207.836 33.0191 208.236 32.939 208.637 32.939C209.038 32.939 209.358 33.0191 209.679 33.1794C209.999 33.3396 210.32 33.58 210.56 33.8204C210.801 34.0608 210.961 34.3813 211.121 34.782C211.282 35.1025 211.362 35.5031 211.362 35.9038C211.362 36.3044 211.282 36.705 211.202 37.0256C211.041 37.3461 210.881 37.6666 210.64 37.9871C210.4 38.3076 210.16 38.4679 209.839 38.6281C209.519 38.7083 209.198 38.7884 208.797 38.7884ZM208.637 38.1474C208.958 38.1474 209.198 38.0673 209.438 37.9871C209.679 37.8269 209.919 37.6666 210.08 37.5063C210.24 37.266 210.4 37.0256 210.48 36.7852C210.56 36.5448 210.64 36.2243 210.64 35.9839C210.64 35.6634 210.56 35.423 210.48 35.1025C210.4 34.7819 210.24 34.6217 209.999 34.3813C209.839 34.1409 209.599 33.9807 209.358 33.9005C209.118 33.7403 208.797 33.7403 208.557 33.7403C208.397 33.7403 208.156 33.7403 207.996 33.8204C207.755 33.9005 207.595 33.9806 207.435 34.1409C207.275 34.3012 207.114 34.3813 206.954 34.6217C206.794 34.8621 206.714 34.9422 206.714 35.1826V36.9454C206.794 37.1858 206.874 37.3461 207.034 37.5063C207.194 37.6666 207.355 37.8269 207.515 37.9871C207.675 38.1474 207.836 38.2275 208.076 38.3076C208.236 38.0672 208.397 38.1474 208.637 38.1474Z" fill="#04A64B"/>
<path d="M215.208 38.7884C214.808 38.7884 214.407 38.7083 214.086 38.548C213.766 38.3878 213.445 38.1474 213.205 37.907C212.964 37.6666 212.724 37.3461 212.644 36.9454C212.483 36.6249 212.403 36.2243 212.403 35.8236C212.403 35.423 212.483 35.0223 212.644 34.7018C212.804 34.3813 212.964 34.0608 213.205 33.8204C213.445 33.58 213.766 33.3396 214.086 33.1794C214.407 33.0191 214.808 32.939 215.208 32.939C215.609 32.939 216.01 33.0191 216.33 33.1794C216.651 33.3396 216.971 33.58 217.212 33.8204C217.452 34.0608 217.613 34.3813 217.773 34.7018C217.933 35.0223 218.013 35.423 218.013 35.8236C218.013 35.9038 218.013 35.9038 218.013 35.9839C218.013 36.064 218.013 36.064 218.013 36.064H213.205C213.205 36.3845 213.285 36.6249 213.445 36.8653C213.525 37.1057 213.686 37.3461 213.926 37.5064C214.086 37.6666 214.327 37.8269 214.567 37.907C214.808 37.9871 215.048 38.0673 215.369 38.0673C215.529 38.0673 215.769 38.0673 215.93 37.9871C216.09 37.907 216.25 37.907 216.41 37.7467C216.571 37.6666 216.731 37.5865 216.811 37.4262C216.891 37.266 217.052 37.1858 217.132 37.0256L217.773 37.1858C217.693 37.4262 217.532 37.5865 217.372 37.7467C217.212 37.907 217.052 38.0673 216.811 38.2275C216.571 38.3878 216.41 38.4679 216.09 38.548C215.769 38.7083 215.449 38.7884 215.208 38.7884ZM217.292 35.5832C217.292 35.2627 217.212 35.0223 217.052 34.782C216.971 34.5416 216.811 34.3012 216.571 34.1409C216.33 33.9806 216.17 33.8204 215.93 33.7403C215.689 33.6601 215.449 33.58 215.128 33.58C214.808 33.58 214.567 33.6601 214.327 33.7403C214.086 33.8204 213.846 33.9806 213.686 34.1409C213.525 34.3012 213.365 34.5416 213.205 34.782C213.125 35.0223 213.044 35.3429 212.964 35.5832H217.292Z" fill="#04A64B"/>
<path d="M223.703 38.7082H222.982V33.7401H220.016V38.7082H219.295V33.0991H223.703V38.7082Z" fill="#04A64B"/>
<path d="M228.351 38.7884C227.87 38.7884 227.469 38.6282 227.069 38.3878C226.668 38.1474 226.428 37.8269 226.187 37.5063V40.9519H225.466V33.0191H226.107V34.1409C226.347 33.8204 226.668 33.4999 226.989 33.2595C227.389 33.0191 227.79 32.939 228.191 32.939C228.591 32.939 228.912 33.0191 229.232 33.1794C229.553 33.3396 229.874 33.58 230.114 33.8204C230.354 34.0608 230.515 34.3813 230.675 34.782C230.835 35.1025 230.915 35.5031 230.915 35.9038C230.915 36.3044 230.835 36.705 230.755 37.0256C230.595 37.3461 230.435 37.6666 230.194 37.9871C229.954 38.3076 229.713 38.4679 229.393 38.6281C229.072 38.7083 228.752 38.7884 228.351 38.7884ZM228.191 38.1474C228.511 38.1474 228.752 38.0673 228.992 37.9871C229.233 37.8269 229.473 37.6666 229.633 37.5063C229.793 37.266 229.954 37.0256 230.034 36.7852C230.114 36.5448 230.194 36.2243 230.194 35.9839C230.194 35.6634 230.114 35.423 230.034 35.1025C229.954 34.7819 229.793 34.6217 229.553 34.3813C229.393 34.1409 229.152 33.9807 228.912 33.9005C228.672 33.7403 228.351 33.7403 228.111 33.7403C227.95 33.7403 227.71 33.7403 227.55 33.8204C227.309 33.9005 227.149 33.9806 226.989 34.1409C226.828 34.3012 226.668 34.3813 226.508 34.6217C226.347 34.8621 226.267 34.9422 226.267 35.1826V36.9454C226.347 37.1858 226.428 37.3461 226.588 37.5063C226.748 37.6666 226.908 37.8269 227.069 37.9871C227.229 38.1474 227.389 38.2275 227.63 38.3076C227.71 38.0672 227.95 38.1474 228.191 38.1474Z" fill="#04A64B"/>
<path d="M234.683 38.7885C234.282 38.7885 233.881 38.7083 233.561 38.5481C233.24 38.3878 232.92 38.1474 232.679 37.907C232.439 37.6666 232.199 37.3461 232.118 36.9455C231.958 36.625 231.878 36.2243 231.878 35.8237C231.878 35.423 231.958 35.0224 232.118 34.7019C232.279 34.3813 232.439 34.0608 232.679 33.7403C232.92 33.4999 233.24 33.2595 233.561 33.0993C233.881 32.939 234.282 32.8589 234.683 32.8589C235.084 32.8589 235.484 32.939 235.805 33.0993C236.126 33.2595 236.446 33.4999 236.686 33.7403C236.927 33.9807 237.167 34.3012 237.247 34.7019C237.328 35.1025 237.488 35.423 237.488 35.8237C237.488 36.2243 237.408 36.625 237.247 36.9455C237.087 37.266 236.927 37.5865 236.686 37.907C236.446 38.1474 236.126 38.3878 235.805 38.5481C235.484 38.7083 235.084 38.7885 234.683 38.7885ZM232.679 35.9038C232.679 36.2243 232.76 36.5448 232.84 36.7852C232.92 37.0256 233.08 37.266 233.24 37.5064C233.401 37.7468 233.641 37.907 233.881 37.9872C234.122 38.0673 234.362 38.1474 234.683 38.1474C235.003 38.1474 235.244 38.0673 235.484 37.9872C235.725 37.907 235.965 37.6666 236.125 37.5064C236.286 37.3461 236.446 37.0256 236.606 36.7852C236.767 36.5448 236.767 36.2243 236.767 35.9038C236.767 35.5833 236.687 35.2628 236.606 35.0224C236.526 34.782 236.366 34.5416 236.125 34.3012C235.965 34.0608 235.725 33.9006 235.484 33.8204C235.244 33.7403 235.003 33.6602 234.683 33.6602C234.362 33.6602 234.122 33.7403 233.881 33.8204C233.641 33.9006 233.401 34.1409 233.24 34.3012C233.08 34.5416 232.92 34.782 232.76 35.0224C232.679 35.2628 232.679 35.5833 232.679 35.9038Z" fill="#04A64B"/>
<path d="M238.289 38.0672H238.61C238.77 38.0672 238.93 37.987 239.01 37.8268C239.091 37.6665 239.251 37.5062 239.331 37.2659C239.411 37.0255 239.491 36.6248 239.571 36.2242C239.651 35.8235 239.732 35.2626 239.812 34.6216L239.972 33.0991H243.258V38.0672H243.979V40.471H243.338V38.7082H238.93V40.471H238.289V38.0672ZM242.537 38.0672V33.66H240.613L240.453 34.9421C240.293 35.8235 240.212 36.5447 240.052 37.0255C239.892 37.5062 239.732 37.9069 239.571 38.0672H242.537Z" fill="#04A64B"/>
<path d="M245.261 40.151C245.342 40.2312 245.502 40.3113 245.582 40.3914C245.662 40.3914 245.822 40.4716 245.903 40.4716C245.983 40.4716 246.063 40.4716 246.143 40.3914C246.223 40.3113 246.303 40.2312 246.383 40.0709C246.464 39.9107 246.544 39.7504 246.624 39.51C246.704 39.2696 246.784 39.0292 246.944 38.6286L244.46 33.0195H245.181L247.265 37.9876L249.188 33.0195H249.91L247.265 39.5901C247.185 39.9107 247.025 40.0709 246.944 40.3113C246.864 40.5517 246.704 40.6318 246.624 40.7921C246.544 40.8722 246.383 40.9523 246.223 41.0325C246.063 41.1126 245.983 41.1126 245.822 41.1126C245.502 41.1126 245.261 41.0325 245.101 40.8722L245.261 40.151Z" fill="#04A64B"/>
<path d="M254.557 33.0195H255.359L253.195 35.7439L255.519 38.6286H254.718L252.714 36.0645H251.913V38.6286H251.271V33.0195H251.993V35.5035H252.714L254.557 33.0195Z" fill="#04A64B"/>
<path d="M258.725 38.7082H258.004V33.7401H256V33.0991H260.648V33.7401H258.645V38.7082H258.725Z" fill="#04A64B"/>
<path d="M262.572 37.6665L265.938 33.0991H266.499V38.7082H265.778V34.2209L262.492 38.7082H261.851V33.0991H262.572V37.6665Z" fill="#04A64B"/>
<path d="M271.148 33.0195C271.388 33.0195 271.548 33.0195 271.709 33.0997C271.869 33.1798 272.029 33.2599 272.19 33.4202C272.35 33.5804 272.43 33.6606 272.51 33.8208C272.59 33.9811 272.59 34.1414 272.59 34.3817C272.59 34.542 272.59 34.6221 272.51 34.7824C272.43 34.9426 272.43 35.0228 272.35 35.183C272.27 35.2632 272.19 35.4234 272.109 35.5035C272.029 35.5837 271.869 35.6638 271.789 35.7439C272.109 35.8241 272.35 35.9843 272.51 36.2247C272.67 36.4651 272.751 36.7856 272.751 37.1061C272.751 37.3465 272.67 37.5869 272.59 37.7472C272.51 37.9074 272.43 38.0677 272.27 38.2279C272.109 38.3882 271.949 38.4683 271.709 38.5484C271.468 38.6286 271.308 38.6286 271.068 38.6286H268.343V33.0195H271.148ZM270.827 35.5035C271.148 35.5035 271.388 35.4234 271.548 35.183C271.709 35.0228 271.789 34.7824 271.789 34.4619C271.789 34.2215 271.709 33.9811 271.548 33.8208C271.388 33.6606 271.148 33.5003 270.907 33.5003H269.064V35.4234H270.827V35.5035ZM270.987 38.1478C271.148 38.1478 271.308 38.1478 271.388 38.0677C271.468 37.9876 271.629 37.9074 271.709 37.8273C271.789 37.7472 271.869 37.5869 271.949 37.5068C272.029 37.3465 272.029 37.2664 272.029 37.1061C272.029 36.8657 271.949 36.6254 271.789 36.385C271.629 36.1446 271.388 36.0645 271.068 36.0645H269.144V38.0677H270.987V38.1478Z" fill="#04A64B"/>
<path d="M274.834 35.4234H277.959V33.0195H278.68V38.6286H277.959V36.0645H274.834V38.6286H274.112V33.0195H274.834V35.4234Z" fill="#04A64B"/>
<path d="M282.928 38.7885C282.527 38.7885 282.127 38.7083 281.806 38.5481C281.485 38.3878 281.165 38.1474 280.924 37.907C280.684 37.6666 280.444 37.3461 280.363 36.9455C280.203 36.625 280.123 36.2243 280.123 35.8237C280.123 35.423 280.203 35.0224 280.363 34.7019C280.524 34.3813 280.684 34.0608 280.924 33.7403C281.165 33.4999 281.485 33.2595 281.806 33.0993C282.127 32.939 282.527 32.8589 282.928 32.8589C283.329 32.8589 283.729 32.939 284.05 33.0993C284.371 33.2595 284.691 33.4999 284.932 33.7403C285.172 33.9807 285.412 34.3012 285.493 34.7019C285.573 35.1025 285.733 35.423 285.733 35.8237C285.733 36.2243 285.653 36.625 285.493 36.9455C285.332 37.266 285.172 37.5865 284.932 37.907C284.691 38.1474 284.371 38.3878 284.05 38.5481C283.729 38.7083 283.329 38.7885 282.928 38.7885ZM280.844 35.9038C280.844 36.2243 280.924 36.5448 281.005 36.7852C281.085 37.0256 281.245 37.266 281.405 37.5064C281.566 37.7468 281.806 37.907 282.046 37.9872C282.287 38.0673 282.527 38.1474 282.848 38.1474C283.168 38.1474 283.409 38.0673 283.649 37.9872C283.89 37.907 284.13 37.6666 284.29 37.5064C284.451 37.3461 284.611 37.0256 284.771 36.7852C284.932 36.5448 284.932 36.2243 284.932 35.9038C284.932 35.5833 284.851 35.2628 284.771 35.0224C284.691 34.782 284.531 34.5416 284.29 34.3012C284.13 34.0608 283.89 33.9006 283.649 33.8204C283.409 33.7403 283.168 33.6602 282.848 33.6602C282.527 33.6602 282.287 33.7403 282.046 33.8204C281.806 33.9006 281.566 34.1409 281.405 34.3012C281.245 34.5416 281.085 34.782 280.924 35.0224C280.924 35.2628 280.844 35.5833 280.844 35.9038Z" fill="#04A64B"/>
<path d="M290.542 33.5804H287.817V38.6286H287.096V33.0195H290.542V33.5804Z" fill="#04A64B"/>
<path d="M294.068 38.7885C293.667 38.7885 293.266 38.7083 292.946 38.5481C292.625 38.3878 292.305 38.1474 292.064 37.907C291.824 37.6666 291.583 37.3461 291.503 36.9455C291.343 36.625 291.263 36.2243 291.263 35.8237C291.263 35.423 291.343 35.0224 291.503 34.7019C291.663 34.3813 291.824 34.0608 292.064 33.7403C292.305 33.4999 292.625 33.2595 292.946 33.0993C293.266 32.939 293.667 32.8589 294.068 32.8589C294.468 32.8589 294.869 32.939 295.19 33.0993C295.51 33.2595 295.831 33.4999 296.071 33.7403C296.312 33.9807 296.552 34.3012 296.632 34.7019C296.712 35.1025 296.873 35.423 296.873 35.8237C296.873 36.2243 296.793 36.625 296.632 36.9455C296.472 37.266 296.312 37.5865 296.071 37.907C295.831 38.1474 295.51 38.3878 295.19 38.5481C294.869 38.7083 294.549 38.7885 294.068 38.7885ZM292.064 35.9038C292.064 36.2243 292.144 36.5448 292.224 36.7852C292.305 37.0256 292.465 37.266 292.625 37.5064C292.785 37.7468 293.026 37.907 293.266 37.9872C293.507 38.0673 293.747 38.1474 294.068 38.1474C294.388 38.1474 294.629 38.0673 294.869 37.9872C295.11 37.907 295.35 37.6666 295.51 37.5064C295.671 37.3461 295.831 37.0256 295.991 36.7852C296.151 36.5448 296.151 36.2243 296.151 35.9038C296.151 35.5833 296.071 35.2628 295.991 35.0224C295.911 34.782 295.751 34.5416 295.51 34.3012C295.35 34.0608 295.11 33.9006 294.869 33.8204C294.629 33.7403 294.388 33.6602 294.068 33.6602C293.747 33.6602 293.507 33.7403 293.266 33.8204C293.026 33.9006 292.785 34.1409 292.625 34.3012C292.465 34.5416 292.305 34.782 292.144 35.0224C292.144 35.2628 292.064 35.5833 292.064 35.9038Z" fill="#04A64B"/>
<path d="M205.591 46.641C205.831 46.4006 205.992 46.2404 206.312 46.1602C206.553 46.0801 206.873 46 207.194 46C207.675 46 208.075 46.1603 208.396 46.4006C208.717 46.641 208.797 46.9615 208.797 47.3622C208.797 47.6827 208.717 48.0032 208.556 48.1635C208.396 48.4039 208.155 48.5641 207.835 48.5641C208.236 48.6442 208.556 48.8045 208.797 49.0449C209.037 49.2853 209.117 49.6859 209.117 50.0866C209.117 50.327 209.037 50.5674 208.957 50.8077C208.877 51.0481 208.717 51.2084 208.556 51.3686C208.396 51.5289 208.156 51.609 207.915 51.6892C207.675 51.7693 207.434 51.8494 207.114 51.8494C206.713 51.8494 206.392 51.7693 206.152 51.609C205.912 51.4488 205.671 51.2885 205.431 50.968L205.831 50.4872C205.992 50.7276 206.152 50.8879 206.392 50.968C206.633 51.0481 206.873 51.1283 207.194 51.1283C207.595 51.1283 207.915 51.0481 208.075 50.8077C208.236 50.5674 208.396 50.327 208.396 50.0064C208.396 49.6058 208.236 49.3654 207.995 49.125C207.755 48.8846 207.354 48.8045 206.873 48.8045H206.473V48.3237H206.873C207.274 48.3237 207.595 48.2436 207.755 48.0834C207.995 47.9231 208.075 47.6827 208.075 47.3622C208.075 47.1218 207.995 46.8814 207.835 46.8013C207.675 46.641 207.434 46.5609 207.114 46.5609C206.873 46.5609 206.713 46.5609 206.473 46.641C206.312 46.7212 206.072 46.8814 205.912 47.0417L205.591 46.641Z" fill="#04A64B"/>
<path d="M209.839 51.0476H210.159C210.32 51.0476 210.48 50.9675 210.56 50.8072C210.64 50.6469 210.801 50.4867 210.881 50.2463C210.961 50.0059 211.041 49.6053 211.121 49.2046C211.201 48.804 211.281 48.2431 211.362 47.602L211.522 46.0796H214.808V51.0476H215.529V53.4515H214.888V51.6886H210.48V53.4515H209.839V51.0476ZM214.167 51.0476V46.6405H212.243L212.083 47.9225C211.923 48.804 211.842 49.5251 211.682 50.0059C211.522 50.4867 211.362 50.8873 211.201 51.0476H214.167Z" fill="#04A64B"/>
<path d="M219.295 51.8495C218.894 51.8495 218.494 51.7694 218.173 51.6091C217.853 51.4488 217.532 51.2084 217.292 50.968C217.051 50.7277 216.811 50.4072 216.731 50.0065C216.57 49.686 216.49 49.2854 216.49 48.8847C216.49 48.4841 216.57 48.0834 216.731 47.7629C216.891 47.4424 217.051 47.1219 217.292 46.8013C217.532 46.561 217.853 46.3206 218.173 46.1603C218.494 46 218.894 45.9199 219.295 45.9199C219.696 45.9199 220.097 46 220.417 46.1603C220.738 46.3206 221.058 46.561 221.299 46.8013C221.539 47.0417 221.78 47.3622 221.86 47.7629C221.94 48.1635 222.1 48.4841 222.1 48.8847C222.1 49.2854 222.02 49.686 221.86 50.0065C221.699 50.327 221.539 50.6475 221.299 50.968C221.058 51.2084 220.738 51.4488 220.417 51.6091C220.097 51.7694 219.696 51.8495 219.295 51.8495ZM217.212 48.8847C217.212 49.2052 217.292 49.5257 217.372 49.7661C217.452 50.0065 217.612 50.2469 217.773 50.4873C217.933 50.7277 218.173 50.8879 218.414 50.968C218.654 51.0482 218.894 51.1283 219.215 51.1283C219.536 51.1283 219.776 51.0482 220.016 50.968C220.257 50.8879 220.497 50.6476 220.658 50.4873C220.818 50.327 220.978 50.0065 221.138 49.7661C221.299 49.5257 221.299 49.2052 221.299 48.8847C221.299 48.5642 221.219 48.2437 221.138 48.0033C221.058 47.7629 220.898 47.5225 220.658 47.2821C220.497 47.0417 220.257 46.8815 220.016 46.8013C219.776 46.7212 219.536 46.6411 219.215 46.6411C218.894 46.6411 218.654 46.7212 218.414 46.8013C218.173 46.8815 217.933 47.1219 217.773 47.2821C217.612 47.5225 217.452 47.7629 217.292 48.0033C217.292 48.3238 217.212 48.5642 217.212 48.8847Z" fill="#04A64B"/>
<path d="M226.348 51.8494C225.867 51.8494 225.466 51.6892 225.066 51.4488C224.665 51.2084 224.425 50.8879 224.184 50.5674V54.013H223.463V46.0801H224.104V47.2019C224.344 46.8814 224.665 46.5609 224.986 46.3205C225.386 46.0801 225.787 46 226.188 46C226.588 46 226.909 46.0801 227.23 46.2404C227.55 46.4006 227.871 46.641 228.111 46.8814C228.352 47.1218 228.512 47.4423 228.672 47.843C228.832 48.1635 228.913 48.5641 228.913 48.9648C228.913 49.3654 228.832 49.7661 228.752 50.0866C228.592 50.4071 228.432 50.7276 228.191 51.0481C227.951 51.3687 227.71 51.5289 227.39 51.6892C227.069 51.7693 226.669 51.8494 226.348 51.8494ZM226.108 51.2084C226.428 51.2084 226.669 51.1283 226.909 51.0481C227.149 50.8879 227.39 50.7276 227.55 50.5674C227.71 50.327 227.871 50.0866 227.951 49.8462C228.031 49.6058 228.111 49.2853 228.111 49.0449C228.111 48.7244 228.031 48.484 227.951 48.1635C227.871 47.843 227.71 47.6827 227.47 47.4423C227.31 47.2019 227.069 47.0417 226.829 46.9615C226.588 46.8013 226.268 46.8013 226.027 46.8013C225.867 46.8013 225.627 46.8013 225.466 46.8814C225.226 46.9616 225.066 47.0417 224.905 47.2019C224.745 47.3622 224.585 47.4423 224.425 47.6827C224.264 47.9231 224.184 48.0032 224.184 48.2436V50.0065C224.264 50.2469 224.344 50.4071 224.505 50.5674C224.665 50.7276 224.825 50.8879 224.986 51.0481C225.146 51.2084 225.306 51.2885 225.547 51.3687C225.707 51.1283 225.947 51.2084 226.108 51.2084Z" fill="#04A64B"/>
<path d="M232.679 51.8495C232.278 51.8495 231.878 51.7694 231.557 51.6091C231.236 51.4488 230.916 51.2084 230.675 50.968C230.435 50.7277 230.195 50.4072 230.114 50.0065C229.954 49.686 229.874 49.2854 229.874 48.8847C229.874 48.4841 229.954 48.0834 230.114 47.7629C230.275 47.4424 230.435 47.1219 230.675 46.8013C230.916 46.561 231.236 46.3206 231.557 46.1603C231.878 46 232.278 45.9199 232.679 45.9199C233.08 45.9199 233.48 46 233.801 46.1603C234.122 46.3206 234.442 46.561 234.683 46.8013C234.923 47.0417 235.163 47.3622 235.244 47.7629C235.324 48.1635 235.484 48.4841 235.484 48.8847C235.484 49.2854 235.404 49.686 235.244 50.0065C235.083 50.327 234.923 50.6475 234.683 50.968C234.442 51.2084 234.122 51.4488 233.801 51.6091C233.48 51.7694 233.08 51.8495 232.679 51.8495ZM230.595 48.8847C230.595 49.2052 230.675 49.5257 230.756 49.7661C230.836 50.0065 230.996 50.2469 231.156 50.4873C231.317 50.7277 231.557 50.8879 231.797 50.968C232.038 51.0482 232.278 51.1283 232.599 51.1283C232.919 51.1283 233.16 51.0482 233.4 50.968C233.641 50.8879 233.881 50.6476 234.041 50.4873C234.202 50.327 234.362 50.0065 234.522 49.7661C234.683 49.5257 234.683 49.2052 234.683 48.8847C234.683 48.5642 234.602 48.2437 234.522 48.0033C234.442 47.7629 234.282 47.5225 234.041 47.2821C233.881 47.0417 233.641 46.8815 233.4 46.8013C233.16 46.7212 232.919 46.6411 232.599 46.6411C232.278 46.6411 232.038 46.7212 231.797 46.8013C231.557 46.8815 231.317 47.1219 231.156 47.2821C230.996 47.5225 230.836 47.7629 230.675 48.0033C230.675 48.3238 230.595 48.5642 230.595 48.8847Z" fill="#04A64B"/>
<path d="M239.652 46.0796C239.892 46.0796 240.052 46.0796 240.213 46.1597C240.373 46.2398 240.533 46.32 240.693 46.4802C240.854 46.6405 240.934 46.7206 241.014 46.8809C241.094 47.0411 241.094 47.2014 241.094 47.4418C241.094 47.602 241.094 47.6822 241.014 47.8424C240.934 48.0027 240.934 48.0828 240.854 48.2431C240.774 48.3232 240.693 48.4834 240.613 48.5636C240.533 48.6437 240.373 48.7239 240.293 48.804C240.613 48.8841 240.854 49.0444 241.014 49.2848C241.174 49.5251 241.254 49.8456 241.254 50.1662C241.254 50.4066 241.174 50.647 241.094 50.8072C241.014 50.9675 240.934 51.1277 240.774 51.288C240.613 51.4483 240.453 51.5284 240.213 51.6085C239.972 51.6886 239.812 51.6886 239.571 51.6886H236.847V46.0796H239.652ZM239.331 48.5636C239.652 48.5636 239.892 48.4835 240.052 48.2431C240.213 48.0828 240.293 47.8424 240.293 47.5219C240.293 47.2815 240.213 47.0411 240.052 46.8809C239.892 46.7206 239.652 46.5603 239.411 46.5603H237.568V48.4835H239.331V48.5636ZM239.491 51.1277C239.652 51.1277 239.812 51.1277 239.892 51.0476C239.972 50.9675 240.132 50.8873 240.213 50.8072C240.293 50.7271 240.373 50.5668 240.453 50.4867C240.533 50.3264 240.533 50.2463 240.533 50.0861C240.533 49.8457 240.453 49.6053 240.293 49.3649C240.132 49.1245 239.892 49.0444 239.571 49.0444H237.648V51.0476H239.491V51.1277Z" fill="#04A64B"/>
<path d="M242.617 46.0805L242.778 44.9587H242.537V43.8369H243.258V44.9587L243.018 46.0805H242.617Z" fill="#04A64B"/>
<path d="M245.823 49.4456C245.502 49.3655 245.181 49.1251 244.941 48.8847C244.701 48.6443 244.62 48.2437 244.62 47.7629C244.62 47.5225 244.701 47.2821 244.781 47.0417C244.861 46.8013 245.021 46.6411 245.181 46.4808C245.342 46.3206 245.502 46.2404 245.742 46.0802C245.983 46.0001 246.223 45.9199 246.464 45.9199H248.467V51.529H247.746V49.3655H246.544L245.101 51.529H244.3L245.823 49.4456ZM247.826 48.9648V46.7212H246.544C246.384 46.7212 246.223 46.7212 246.143 46.8013C246.063 46.8815 245.903 46.9616 245.742 47.0417C245.582 47.1219 245.582 47.2821 245.502 47.3622C245.422 47.5225 245.422 47.6828 245.422 47.843C245.422 48.1635 245.502 48.4039 245.742 48.6443C245.983 48.8847 246.223 48.9648 246.544 48.9648H247.826Z" fill="#04A64B"/>
<path d="M184.915 19.9575H171.852V27.8102H177.381C177.862 25.3262 180.106 23.4031 182.751 23.4031C185.796 23.4031 188.201 25.8871 188.201 28.8519V32.7782H180.747C175.458 32.7782 171.852 37.1052 171.852 42.3937V44.4771C171.852 49.7656 175.458 54.0926 180.747 54.0926H194.532V29.573C194.452 24.2044 190.204 19.9575 184.915 19.9575ZM188.281 36.2237V45.8393C187.96 48.5637 185.636 50.647 182.831 50.647C179.786 50.647 177.381 48.163 177.381 45.1982V41.7527C177.381 38.7077 179.866 36.3039 182.831 36.3039H188.281V36.2237Z" fill="#E73137"/>
<path d="M128.094 19.9575H115.031V27.8102H120.561C121.042 25.3262 123.286 23.4031 125.931 23.4031C128.976 23.4031 131.38 25.8871 131.38 28.8519V32.7782H123.847C118.558 32.7782 114.951 37.1052 114.951 42.3937V44.4771C114.951 49.7656 118.558 54.0926 123.847 54.0926H137.631V29.573C137.712 24.2044 133.384 19.9575 128.094 19.9575ZM131.46 36.2237V45.8393C131.14 48.5637 128.816 50.647 126.011 50.647C122.965 50.647 120.561 48.163 120.561 45.1982V41.7527C120.561 38.7077 123.046 36.3039 126.011 36.3039H131.46V36.2237Z" fill="#E73137"/>
</svg>
