<svg width="151" height="61" viewBox="0 0 151 61" fill="none" xmlns="http://www.w3.org/2000/svg">
<path d="M55.191 34.922C52.7746 34.922 50.792 32.8865 50.792 30.4057C50.792 27.9249 52.7746 25.8894 55.191 25.8894C57.6073 25.8894 59.59 27.9249 59.59 30.4057C59.59 32.8865 57.6073 34.922 55.191 34.922Z" fill="#04A64B"/>
<path d="M4.69491 34.922C2.27855 34.922 0.295898 32.8865 0.295898 30.4057C0.295898 27.9249 2.27855 25.8894 4.69491 25.8894C7.11127 25.8894 9.09393 27.9249 9.09393 30.4057C9.09393 32.8865 7.11127 34.922 4.69491 34.922Z" fill="#04A64B"/>
<path d="M29.9111 36.8939C33.3671 36.8939 36.1688 34.0175 36.1688 30.4693C36.1688 26.9211 33.3671 24.0447 29.9111 24.0447C26.455 24.0447 23.6533 26.9211 23.6533 30.4693C23.6533 34.0175 26.455 36.8939 29.9111 36.8939Z" fill="#E73137"/>
<path d="M29.9114 48.7889C31.9303 48.7889 33.5669 47.1086 33.5669 45.0359C33.5669 42.9632 31.9303 41.283 29.9114 41.283C27.8925 41.283 26.2559 42.9632 26.2559 45.0359C26.2559 47.1086 27.8925 48.7889 29.9114 48.7889Z" fill="#04A64B"/>
<path d="M29.9114 19.6556C31.9303 19.6556 33.5669 17.9753 33.5669 15.9026C33.5669 13.8299 31.9303 12.1497 29.9114 12.1497C27.8925 12.1497 26.2559 13.8299 26.2559 15.9026C26.2559 17.9753 27.8925 19.6556 29.9114 19.6556Z" fill="#04A64B"/>
<path d="M29.9117 9.03261C27.4953 9.03261 25.5127 6.99709 25.5127 4.5163C25.5127 2.03552 27.4953 0 29.9117 0C32.3281 0 34.3107 2.03552 34.3107 4.5163C34.3107 6.99709 32.39 9.03261 29.9117 9.03261Z" fill="#04A64B"/>
<path d="M21.8574 12.849C23.0966 12.849 24.0879 11.8312 24.0879 10.559C24.0879 9.2868 23.0966 8.26904 21.8574 8.26904C20.6183 8.26904 19.627 9.2868 19.627 10.559C19.6889 11.8312 20.6802 12.849 21.8574 12.849Z" fill="#04A64B"/>
<path d="M37.9043 12.849C39.1435 12.849 40.1348 11.8312 40.1348 10.559C40.1348 9.2868 39.1435 8.26904 37.9043 8.26904C36.6652 8.26904 35.6738 9.2868 35.6738 10.559C35.7358 11.8312 36.7271 12.849 37.9043 12.849Z" fill="#04A64B"/>
<path d="M49.3047 24.49C50.5366 24.49 51.5352 23.4648 51.5352 22.2001C51.5352 20.9354 50.5366 19.9102 49.3047 19.9102C48.0728 19.9102 47.0742 20.9354 47.0742 22.2001C47.0742 23.4648 48.0728 24.49 49.3047 24.49Z" fill="#04A64B"/>
<path d="M49.3047 40.9649C50.5366 40.9649 51.5352 39.9397 51.5352 38.675C51.5352 37.4103 50.5366 36.385 49.3047 36.385C48.0728 36.385 47.0742 37.4103 47.0742 38.675C47.0742 39.9397 48.0728 40.9649 49.3047 40.9649Z" fill="#04A64B"/>
<path d="M10.5801 24.4261C11.8193 24.4261 12.8106 23.4084 12.8106 22.1362C12.8106 20.864 11.8193 19.8462 10.5801 19.8462C9.34094 19.8462 8.34961 20.864 8.34961 22.1362C8.34961 23.4084 9.34094 24.4261 10.5801 24.4261Z" fill="#04A64B"/>
<path d="M10.5801 36.385C9.34094 36.385 8.34961 37.4028 8.34961 38.675C8.34961 39.9472 9.34094 40.9649 10.5801 40.9649C11.8193 40.9649 12.8106 39.9472 12.8106 38.675C12.7486 37.4028 11.7573 36.385 10.5801 36.385Z" fill="#04A64B"/>
<path d="M29.9114 60.1117C31.9303 60.1117 33.5669 58.4314 33.5669 56.3587C33.5669 54.286 31.9303 52.6057 29.9114 52.6057C27.8925 52.6057 26.2559 54.286 26.2559 56.3587C26.2559 58.4314 27.8925 60.1117 29.9114 60.1117Z" fill="#04A64B"/>
<path d="M12.0683 15.0757C12.8737 15.0757 13.6172 14.7576 14.1129 14.1851C15.2281 13.0402 15.2281 11.0682 14.1129 9.92325C13.5553 9.35076 12.8118 9.03271 12.0683 9.03271C11.3248 9.03271 10.5193 9.35076 10.0237 9.92325C9.46604 10.4957 9.15625 11.2591 9.15625 12.0224C9.15625 12.7857 9.46604 13.6126 10.0237 14.1215C10.5813 14.7576 11.3248 15.0757 12.0683 15.0757Z" fill="#04A64B"/>
<path d="M47.8183 15.0757C48.6237 15.0757 49.3672 14.7576 49.8629 14.1851C50.9781 13.0402 50.9781 11.0682 49.8629 9.92325C49.3053 9.35076 48.5618 9.03271 47.8183 9.03271C47.0748 9.03271 46.2693 9.35076 45.7737 9.92325C45.216 10.4957 44.9062 11.2591 44.9062 12.0224C44.9062 12.8493 45.216 13.6126 45.7737 14.1215C46.2693 14.7576 47.0128 15.0757 47.8183 15.0757Z" fill="#04A64B"/>
<path d="M15.7854 34.2225C17.8043 34.2225 19.4409 32.5423 19.4409 30.4696C19.4409 28.3968 17.8043 26.7166 15.7854 26.7166C13.7665 26.7166 12.1299 28.3968 12.1299 30.4696C12.1299 32.5423 13.7665 34.2225 15.7854 34.2225Z" fill="#04A64B"/>
<path d="M44.0999 34.2225C46.1188 34.2225 47.7554 32.5423 47.7554 30.4696C47.7554 28.3968 46.1188 26.7166 44.0999 26.7166C42.081 26.7166 40.4443 28.3968 40.4443 30.4696C40.4443 32.5423 42.081 34.2225 44.0999 34.2225Z" fill="#04A64B"/>
<path d="M19.9365 35.4941C18.5734 35.4941 17.2723 36.0666 16.2809 37.0208C14.2983 39.0563 14.2983 42.4276 16.2809 44.4631C17.2723 45.4809 18.5114 45.9898 19.9365 45.9898C21.2995 45.9898 22.6006 45.4173 23.592 44.4631C25.5746 42.4276 25.5746 39.0563 23.592 37.0208C22.6006 36.003 21.2995 35.4941 19.9365 35.4941Z" fill="#04A64B"/>
<path d="M39.9482 25.4442C41.3113 25.4442 42.6124 24.8717 43.6037 23.9176C44.595 22.8998 45.0907 21.6276 45.0907 20.1646C45.0907 18.7652 44.5331 17.4294 43.6037 16.4116C42.6124 15.3939 41.3732 14.885 39.9482 14.885C38.5851 14.885 37.284 15.4575 36.2927 16.4116C34.31 18.4472 34.31 21.8185 36.2927 23.854C37.284 24.8717 38.5851 25.4442 39.9482 25.4442Z" fill="#04A64B"/>
<path d="M19.9365 14.885C18.5734 14.885 17.2723 15.4575 16.2809 16.4116C14.2983 18.4472 14.2983 21.8185 16.2809 23.854C17.2723 24.8717 18.5114 25.3806 19.9365 25.3806C21.2995 25.3806 22.6006 24.8081 23.592 23.854C25.5746 21.8185 25.5746 18.4472 23.592 16.4116C22.6006 15.4575 21.2995 14.885 19.9365 14.885Z" fill="#04A64B"/>
<path d="M39.9482 35.4941C38.5851 35.4941 37.284 36.0666 36.2927 37.0208C34.31 39.0563 34.31 42.4276 36.2927 44.4631C37.284 45.4809 38.5231 45.9898 39.9482 45.9898C41.3113 45.9898 42.6124 45.4173 43.6037 44.4631C45.5863 42.4276 45.5863 39.0563 43.6037 37.0208C42.6124 36.003 41.3113 35.4941 39.9482 35.4941Z" fill="#04A64B"/>
<path d="M119.132 15.7751C115.042 15.7751 112.254 19.2101 112.254 23.4083V36.6392C112.254 38.9291 110.52 40.8374 108.289 40.9647V42.873H129.788V15.7751H119.132ZM124.956 39.8833H116.529V22.8358C116.529 20.4187 118.45 18.5104 120.743 18.5104H124.956V39.8833Z" fill="#E73137"/>
<path d="M75.327 15.7751C71.2378 15.7751 68.4497 19.2101 68.4497 23.4083V36.6392C68.4497 38.9291 66.7149 40.8374 64.4844 40.9647V42.873H72.7248V22.8358C72.7248 20.4187 74.6455 18.5104 76.9379 18.5104H81.1511V42.873H85.9838V15.7751H75.327Z" fill="#E73137"/>
<path d="M142.861 15.7751H132.762V22.0089H137.037C137.409 20.037 139.143 18.5104 141.188 18.5104C143.542 18.5104 145.401 20.4823 145.401 22.8358V25.9527H139.639C135.55 25.9527 132.762 29.3877 132.762 33.5859V35.2398C132.762 39.438 135.55 42.873 139.639 42.873H150.296V23.4083C150.234 19.1465 146.95 15.7751 142.861 15.7751ZM145.463 28.6879V36.3211C145.215 38.4839 143.419 40.1377 141.25 40.1377C138.896 40.1377 137.037 38.1658 137.037 35.8123V33.077C137.037 30.6598 138.958 28.7516 141.25 28.7516H145.463V28.6879Z" fill="#E73137"/>
<path d="M98.9326 15.7751H88.8334V22.0089H93.1085C93.4803 20.037 95.2151 18.5104 97.2597 18.5104C99.6141 18.5104 101.473 20.4823 101.473 22.8358V25.9527H95.6488C91.5596 25.9527 88.7715 29.3877 88.7715 33.5859V35.2398C88.7715 39.438 91.5596 42.873 95.6488 42.873H106.306V23.4083C106.368 19.1465 103.022 15.7751 98.9326 15.7751ZM101.535 28.6879V36.3211C101.287 38.4839 99.4902 40.1377 97.3217 40.1377C94.9673 40.1377 93.1085 38.1658 93.1085 35.8123V33.077C93.1085 30.6598 95.0293 28.7516 97.3217 28.7516H101.535V28.6879Z" fill="#E73137"/>
</svg>
